<mxfile
  host="Electron" 
  agent="Mozilla/5.0 (Macintosh; Intel Mac OS X 10_15_7) AppleWebKit/537.36 (KHTML, like Gecko) draw.io/25.0.2 Chrome/128.0.6613.186 Electron/32.2.5 Safari/537.36" 
  version="25.0.2"
  >
  <diagram
    name="-"
    >
    <mxGraphModel
      grid="1" 
      gridSize="10" 
      guides="1" 
      tooltips="1" 
      connect="1" 
      arrows="1" 
      fold="1" 
      page="1" 
      pageScale="1" 
      pageWidth="1" 
      pageHeight="1" 
      math="0" 
      shadow="0"
      >
      <root>
        <mxCell
          id="page"
          />
        <mxCell
          id="root" 
          parent="page"
          />
        <mxCell
          style="verticalAlign=top;aspect=fixed;align=center;spacingLeft=5;spacingRight=5;spacingBottom=5;strokeColor=none;" 
          id="shape_" 
          parent="root" 
          value=" " 
          vertex="1"
          >
          <mxGeometry
            as="geometry" 
            width="120" 
            height="120" 
            x="0" 
            y="0"
            />
          </mxCell>
        <mxCell
          style="rounded=1;whiteSpace=wrap;verticalAlign=top;align=center;sketch=0;html=1;labelPosition=center;verticalLabelPosition=bottom;spacingTop=-6;fontSize=11;fontStyle=1;fontColor=#999999;shape=image;aspect=fixed;imageAspect=0;image=data:image/svg+xml,PHN2ZyB4bWxucz0iaHR0cDovL3d3dy53My5vcmcvMjAwMC9zdmciIHhtbG5zOnY9Imh0dHBzOi8vdmVjdGEuaW8vbmFubyIgd2lkdGg9IjM3NS41MDQwMTg5MTYxMTE2IiBoZWlnaHQ9IjM3Ni40MTEwMTA4NDIxNTg5MyIgdmlld0JveD0iMCAwIDk5LjM1MjAwNTAwNDg4MjgxIDk5LjU5MjAwMjg2ODY1MjM0Ij4mI3hhOzxzdHlsZSB0eXBlPSJ0ZXh0L2NzcyI+JiN4YTsJLnN0MHtmaWxsOiM2NjlkZjY7fSYjeGE7CS5zdDF7ZmlsbDojYWVjYmZhO30mI3hhOzwvc3R5bGU+JiN4YTsJPHBhdGggY2xhc3M9InN0MCIgZD0iTTcwLjc2MyA0OS43ODZhMzAuOTkgMzAuOTkgMCAwIDAtNC40OTkuNDQydjI3LjA3OGgxMXYtMjYuOTdsLTIuNjg2LS4zOTFjLTEuMjc5LS4xMzEtMi41NC0uMTg2LTMuODE1LS4xNTl6bS0xNS41ODcgMy43NjZsLTQuNDcxIDEuODcxLS4wMTYuMDA2LS4wMTYuMDA4LTYuNDk4IDIuNTIydjMwLjg4NGgxMXptMzMuMTc2LjEwNHY0NS45MzZoMTFWNTguMTk4Yy00LjEzOC0xLjc5OC03Ljc4My0zLjMyNS0xMS00LjU0MXpNMCA1My43Njh2MjMuNTM5aDExVjU4LjAxMmMtMy40MzYtMS4xMjYtNy4wNTItMi41NTItMTEtNC4yNDR6bTMzLjA4OCA2Ljg2Yy0zLjcwNS40NzItNy4zMjUuNDc4LTExIC4wMDd2MzguOTU3aDExeiIvPiYjeGE7CTxwYXRoIGNsYXNzPSJzdDEiIGQ9Ik0wIDB2NDEuNzM0YzQuMTA1IDEuODE5IDcuNzQgMy4zNSAxMSA0LjU3MlYwem02Ni4yNjQgMHYzOS4xNTRjMy4xNzgtLjQxMiA2LjI4Mi0uNDczIDkuNDM0LS4xNS41MjMuMDUzIDEuMDQ0LjExOSAxLjU2Ni4xOTFWMHpNNDQuMTc2IDExLjUzOHYzNC42OTRsMi4xMzctLjg5NWMzLjE0LTEuMzc5IDYuMDY5LTIuNTM5IDguODYzLTMuNDl2LTMwLjMxek0yMi4wODggMjIuMjg1djI3LjIzYy4wMTEuMDAyLjAyMi4wMDQuMDMzLjAwNiAzLjc3NC42NCA3LjIxNS43MDcgMTAuOTY3LjA4VjIyLjI4NXptNjYuMjY0IDB2MTkuNjQxYzMuMzg4IDEuMTQ0IDcuMDE1IDIuNTk3IDExIDQuMjlWMjIuMjg1eiIvPiYjeGE7PC9zdmc+;strokeColor=none;" 
          id="cloud_inference_api_" 
          parent="shape_" 
          value=" " 
          vertex="1"
          >
          <mxGeometry
            as="geometry" 
            width="60" 
            height="60" 
            x="30" 
            y="30"
            />
          </mxCell>
        </root>
      </mxGraphModel>
    </diagram>
  </mxfile>